# xmcd
#
# Track frame offsets: 
#        150
#        18876
#        36709
#        55372
#        84492
#
# Disc length: 2146 seconds
#
# Revision: 2
# Processed by: cddbd v1.5.2PL0 Copyright (c) Steve Scherf et al.
# Submitted via: ExactAudioCopy v0.99pb4
#
DISCID=3b086005
DTITLE=Various Artist - Silbermond Trifft Jenix
DYEAR=2010
DGENRE=Rock
TTITLE0=Jenix - Unendlich (Fast Unplugged)
TTITLE1=Silbermond - Here We Go Again (Auch Fast Unplugged)
TTITLE2=Jenix - Unendlich (Instrumental)
TTITLE3=Silbermond - Here We Go Again (Instrumental)
TTITLE4=Silbermond und Jenix - Data track
EXTD=YEAR: 2010
EXTT0=
EXTT1=
EXTT2=
EXTT3=
EXTT4=
PLAYORDER=
